# xmcd CD database file
#
# Track frame offsets:
#	150
#	24712
#	38170
#	58867
#	79740
#	104437
#	125046
#	148300
#	169157
#	182460
#	203121
#
# Disc length: 3017 seconds
#
# Revision: 0
# Processed by: cddbd v1.5.1PL0 Copyright (c) Steve Scherf et al.
# Submitted via: NeoAudio 9.9.9
#
DISCID=9f0bc70b
DTITLE=Jason Bitten - At Midnight
DYEAR=2003
DGENRE=Jazz
TTITLE0=At Midnight
TTITLE1=Traveling
TTITLE2=Lord I Give You All
TTITLE3=My Prayer
TTITLE4=Better Late
TTITLE5=Heaven Bound
TTITLE6=Sweetest Melody
TTITLE7=Relationships
TTITLE8=Thank You
TTITLE9=My Prayer(Remix)
TTITLE10=Amazing Grace
EXTD=YEAR: 2003
EXTT0=
EXTT1=
EXTT2=
EXTT3=
EXTT4=
EXTT5=
EXTT6=
EXTT7=
EXTT8=
EXTT9=
EXTT10=
PLAYORDER=
